<svg xmlns="http://www.w3.org/2000/svg" xmlns:xlink="http://www.w3.org/1999/xlink" width="570.466" height="157.312" viewBox="0 0 570.466 157.312"><defs><linearGradient id="a" x1="0.5" y1="1" x2="0.5" gradientUnits="objectBoundingBox"><stop offset="0" stop-color="gray" stop-opacity="0.251"/><stop offset="0.54" stop-color="gray" stop-opacity="0.122"/><stop offset="1" stop-color="gray" stop-opacity="0.102"/></linearGradient><linearGradient id="b" x1="0.5" x2="0.5" y2="1" gradientUnits="objectBoundingBox"><stop offset="0" stop-color="#e0e0e0"/><stop offset="0.31" stop-color="#fccc63"/><stop offset="0.77" stop-color="#f55f44"/></linearGradient><linearGradient id="c" x1="0.5" y1="0" x2="0.5" y2="1" xlink:href="#b"/></defs><g transform="translate(0 0)"><g transform="translate(0 0)" opacity="0.7"><path d="M480.405,115.616a36.655,36.655,0,0,0-4.145-17.052,21.372,21.372,0,0,0-3.4-4.952,2.428,2.428,0,0,0-2.78-.535,2.52,2.52,0,0,0-.973.628,21.862,21.862,0,0,0-3.316,4.767A36.81,36.81,0,0,0,461.44,116v3.666h-2.352V77.031a57.1,57.1,0,0,0-5.921-25.562,32.249,32.249,0,0,0-4.853-7.42,3.363,3.363,0,0,0-5.057,0,32.957,32.957,0,0,0-4.737,7.143,57.374,57.374,0,0,0-6.21,26.246v42.209h-2.032V115.8a36.8,36.8,0,0,0-4.351-17.514,22.36,22.36,0,0,0-3.316-4.768,2.432,2.432,0,0,0-2.842-.516l.085.045a2.55,2.55,0,0,0-.793.554,21.512,21.512,0,0,0-3.4,4.952,36.655,36.655,0,0,0-4.145,17.052v63.709h7.257l-.8,5.236v15.662h5.935V184.554l-.793-5.239h7.152V121.291H432.3v57.774h5.8l-.831,5.49v15.662H443.2V184.554l-.831-5.5h7.816l-.836,5.5v15.662h5.935V184.554l-.831-5.5h4.628V121.3h2.352V179.41h1.906v-.088h6.3l-.791,5.232v15.662h5.935V184.554l-.793-5.239h6.411Z" transform="translate(-411.519 -42.904)" fill="url(#a)"/></g><path d="M418.29,563.263h-5.62l1-6.823h3.612Z" transform="translate(-404.722 -424.658)" fill="#535461"/><g transform="translate(8.673 132.584)" opacity="0.1"><path d="M415.73,561.736H419.9l-.279-1.906h-3.612Z" transform="translate(-415.73 -559.83)"/></g><path d="M621.648,563.263H616.03l1-6.823h3.614Z" transform="translate(-559.919 -424.658)" fill="#535461"/><g transform="translate(56.834 132.584)" opacity="0.1"><path d="M619.08,561.736h4.173l-.28-1.906h-3.614Z" transform="translate(-619.08 -559.83)"/></g><path d="M495.4,563.263H489.78l1-6.823H494.4Z" transform="translate(-463.569 -424.658)" fill="#535461"/><g transform="translate(26.933 132.584)" opacity="0.1"><path d="M492.83,561.736H497l-.279-1.906h-3.614Z" transform="translate(-492.83 -559.83)"/></g><path d="M543.7,563.263H538.08l1-6.823h3.612Z" transform="translate(-500.43 -424.658)" fill="#535461"/><g transform="translate(38.372 132.584)" opacity="0.1"><path d="M541.13,561.736H545.3l-.282-1.906h-3.612Z" transform="translate(-541.13 -559.83)"/></g><rect width="40.134" height="1.606" transform="translate(13.568 75.393)" fill="#535461"/><path d="M630.246,251.763a2.262,2.262,0,0,0-3.354,0,21.585,21.585,0,0,0-3.145,4.642,36.657,36.657,0,0,0-4.119,17.052v61.776h17.763V273.2a36.525,36.525,0,0,0-3.924-16.612A20.735,20.735,0,0,0,630.246,251.763Z" transform="translate(-570.341 -201.73)" fill="#e0e0e0"/><path d="M426.372,251.763a2.262,2.262,0,0,1,3.354,0,21.593,21.593,0,0,1,3.148,4.642,36.683,36.683,0,0,1,4.119,17.052v61.776H419.229V273.2a36.524,36.524,0,0,1,3.924-16.612A20.669,20.669,0,0,1,426.372,251.763Z" transform="translate(-417.403 -201.73)" fill="#e0e0e0"/><path d="M387.25,307.33l4.216.021v5.2H387.25Z" transform="translate(-385.322 -234.546)" fill="#535461"/><path d="M444.02,307.33l4.216.021v5.2H444.02Z" transform="translate(-428.647 -234.546)" fill="#535461"/><path d="M587.22,307.33l4.213.021v5.2H587.22Z" transform="translate(-537.932 -234.546)" fill="#535461"/><path d="M643.99,307.33l4.213.021v5.2H643.99Z" transform="translate(-581.257 -234.546)" fill="#535461"/><g transform="translate(9.639 49.209)" opacity="0.1"><path d="M458.051,256.064a21.6,21.6,0,0,0-3.148-4.642,2.252,2.252,0,0,0-2.683-.5,2.394,2.394,0,0,1,.677.5,21.586,21.586,0,0,1,3.145,4.642,36.65,36.65,0,0,1,4.119,17.052v61.771h2.008V273.119a36.682,36.682,0,0,0-4.119-17.055Z" transform="translate(-452.22 -250.678)"/></g><g transform="translate(49.086 49.379)" opacity="0.1"><path d="M624.7,256.785a21.581,21.581,0,0,1,3.145-4.642,2.348,2.348,0,0,1,.777-.554,2.259,2.259,0,0,0-2.581.554,21.5,21.5,0,0,0-3.148,4.642,36.683,36.683,0,0,0-4.119,17.052v61.781h1.807V273.842A36.654,36.654,0,0,1,624.7,256.785Z" transform="translate(-618.779 -251.399)"/></g><path d="M447.967,643.392h-.154a2.733,2.733,0,0,1-2.733-2.733V628.14h5.62v12.519A2.733,2.733,0,0,1,447.967,643.392Z" transform="translate(-437.132 -489.535)" fill="url(#b)"/><path d="M525.077,643.392h-.156a2.733,2.733,0,0,1-2.731-2.733V628.14h5.618v12.519A2.733,2.733,0,0,1,525.077,643.392Z" transform="translate(-495.979 -489.535)" fill="url(#c)"/><path d="M573.375,643.392h-.159a2.733,2.733,0,0,1-2.726-2.733V628.14h5.618v12.519A2.733,2.733,0,0,1,573.375,643.392Z" transform="translate(-532.84 -489.535)" fill="url(#c)"/><path d="M651.327,643.392h-.149a2.733,2.733,0,0,1-2.738-2.733V628.14h5.618v12.519A2.733,2.733,0,0,1,651.327,643.392Z" transform="translate(-592.329 -489.535)" fill="url(#c)"/><path d="M517.475,46.048a3.126,3.126,0,0,0-4.787,0,33.231,33.231,0,0,0-4.5,6.956,57.2,57.2,0,0,0-5.878,25.559V177.7h25.341V78.165a57.012,57.012,0,0,0-5.6-24.891A30.868,30.868,0,0,0,517.475,46.048Z" transform="translate(-480.807 -44.452)" fill="#eee"/><rect width="13.225" height="6.061" rx="3.03" transform="translate(27.397 12.608)" fill="#535461"/><g transform="translate(21.64 37.5)" opacity="0.1"><rect width="25.083" height="0.973"/></g><text transform="translate(90.466 113.625)" fill="#2d2d2d" font-size="77" font-family="Lato-Black, Lato" font-weight="800"><tspan x="0" y="0">MOON</tspan><tspan y="0" xml:space="preserve" fill="#ab3ae4">H    ST</tspan></text></g></svg>