<svg xmlns="http://www.w3.org/2000/svg" width="184" height="184" viewBox="0 0 184 184"><circle cx="3.5" cy="3.5" r="3.5" fill="rgba(0,27,192,0.1)"/><circle cx="3.5" cy="3.5" r="3.5" transform="translate(0 20)" fill="rgba(0,27,192,0.1)"/><circle cx="3.5" cy="3.5" r="3.5" transform="translate(20 20)" fill="rgba(0,27,192,0.1)"/><circle cx="3.5" cy="3.5" r="3.5" transform="translate(39 20)" fill="rgba(0,27,192,0.1)"/><circle cx="3.5" cy="3.5" r="3.5" transform="translate(59 20)" fill="rgba(0,27,192,0.1)"/><circle cx="3.5" cy="3.5" r="3.5" transform="translate(79 20)" fill="rgba(0,27,192,0.1)"/><circle cx="3.5" cy="3.5" r="3.5" transform="translate(98 20)" fill="rgba(0,27,192,0.1)"/><circle cx="3.5" cy="3.5" r="3.5" transform="translate(118 20)" fill="rgba(0,27,192,0.1)"/><circle cx="3.5" cy="3.5" r="3.5" transform="translate(138 20)" fill="rgba(0,27,192,0.1)"/><circle cx="3.5" cy="3.5" r="3.5" transform="translate(157 20)" fill="rgba(0,27,192,0.1)"/><circle cx="3.5" cy="3.5" r="3.5" transform="translate(177 20)" fill="rgba(0,27,192,0.1)"/><circle cx="3.5" cy="3.5" r="3.5" transform="translate(0 39)" fill="rgba(0,27,192,0.1)"/><circle cx="3.5" cy="3.5" r="3.5" transform="translate(20 39)" fill="rgba(0,27,192,0.1)"/><circle cx="3.5" cy="3.5" r="3.5" transform="translate(0 59)" fill="rgba(0,27,192,0.1)"/><circle cx="3.5" cy="3.5" r="3.5" transform="translate(20 59)" fill="rgba(0,27,192,0.1)"/><circle cx="3.5" cy="3.5" r="3.5" transform="translate(0 79)" fill="rgba(0,27,192,0.1)"/><circle cx="3.5" cy="3.5" r="3.5" transform="translate(20 79)" fill="rgba(0,27,192,0.1)"/><circle cx="3.5" cy="3.5" r="3.5" transform="translate(0 98)" fill="rgba(0,27,192,0.1)"/><circle cx="3.5" cy="3.5" r="3.5" transform="translate(20 98)" fill="rgba(0,27,192,0.1)"/><circle cx="3.5" cy="3.5" r="3.5" transform="translate(0 118)" fill="rgba(0,27,192,0.1)"/><circle cx="3.5" cy="3.5" r="3.5" transform="translate(20 118)" fill="rgba(0,27,192,0.1)"/><circle cx="3.5" cy="3.5" r="3.5" transform="translate(0 138)" fill="rgba(0,27,192,0.1)"/><circle cx="3.5" cy="3.5" r="3.5" transform="translate(20 138)" fill="rgba(0,27,192,0.1)"/><circle cx="3.5" cy="3.5" r="3.5" transform="translate(0 157)" fill="rgba(0,27,192,0.1)"/><circle cx="3.5" cy="3.5" r="3.5" transform="translate(20 157)" fill="rgba(0,27,192,0.1)"/><circle cx="3.5" cy="3.5" r="3.5" transform="translate(0 177)" fill="rgba(0,27,192,0.1)"/><circle cx="3.5" cy="3.5" r="3.5" transform="translate(20 177)" fill="rgba(0,27,192,0.1)"/><circle cx="3.5" cy="3.5" r="3.5" transform="translate(39 39)" fill="rgba(0,27,192,0.1)"/><circle cx="3.5" cy="3.5" r="3.5" transform="translate(39 59)" fill="rgba(0,27,192,0.1)"/><circle cx="3.5" cy="3.5" r="3.5" transform="translate(39 79)" fill="rgba(0,27,192,0.1)"/><circle cx="3.5" cy="3.5" r="3.5" transform="translate(39 98)" fill="rgba(0,27,192,0.1)"/><circle cx="3.5" cy="3.5" r="3.5" transform="translate(39 118)" fill="rgba(0,27,192,0.1)"/><circle cx="3.5" cy="3.5" r="3.5" transform="translate(39 138)" fill="rgba(0,27,192,0.1)"/><circle cx="3.5" cy="3.5" r="3.5" transform="translate(39 157)" fill="rgba(0,27,192,0.1)"/><circle cx="3.5" cy="3.5" r="3.5" transform="translate(39 177)" fill="rgba(0,27,192,0.1)"/><circle cx="3.5" cy="3.5" r="3.5" transform="translate(59 39)" fill="rgba(0,27,192,0.1)"/><circle cx="3.5" cy="3.5" r="3.5" transform="translate(59 59)" fill="rgba(0,27,192,0.1)"/><circle cx="3.5" cy="3.5" r="3.5" transform="translate(59 79)" fill="rgba(0,27,192,0.1)"/><circle cx="3.5" cy="3.5" r="3.5" transform="translate(59 98)" fill="rgba(0,27,192,0.1)"/><circle cx="3.5" cy="3.5" r="3.5" transform="translate(59 118)" fill="rgba(0,27,192,0.1)"/><circle cx="3.5" cy="3.5" r="3.5" transform="translate(59 138)" fill="rgba(0,27,192,0.1)"/><circle cx="3.5" cy="3.5" r="3.5" transform="translate(59 157)" fill="rgba(0,27,192,0.1)"/><circle cx="3.5" cy="3.5" r="3.5" transform="translate(59 177)" fill="rgba(0,27,192,0.1)"/><circle cx="3.5" cy="3.5" r="3.5" transform="translate(79 39)" fill="rgba(0,27,192,0.1)"/><circle cx="3.5" cy="3.5" r="3.5" transform="translate(79 59)" fill="rgba(0,27,192,0.1)"/><circle cx="3.5" cy="3.5" r="3.5" transform="translate(79 79)" fill="rgba(0,27,192,0.1)"/><circle cx="3.5" cy="3.5" r="3.5" transform="translate(79 98)" fill="rgba(0,27,192,0.1)"/><circle cx="3.5" cy="3.5" r="3.5" transform="translate(79 118)" fill="rgba(0,27,192,0.1)"/><circle cx="3.5" cy="3.5" r="3.5" transform="translate(79 138)" fill="rgba(0,27,192,0.1)"/><circle cx="3.5" cy="3.5" r="3.5" transform="translate(79 157)" fill="rgba(0,27,192,0.1)"/><circle cx="3.5" cy="3.5" r="3.5" transform="translate(79 177)" fill="rgba(0,27,192,0.1)"/><circle cx="3.5" cy="3.5" r="3.5" transform="translate(98 39)" fill="rgba(0,27,192,0.1)"/><circle cx="3.5" cy="3.5" r="3.5" transform="translate(98 59)" fill="rgba(0,27,192,0.1)"/><circle cx="3.5" cy="3.5" r="3.5" transform="translate(98 79)" fill="rgba(0,27,192,0.1)"/><circle cx="3.5" cy="3.5" r="3.5" transform="translate(98 98)" fill="rgba(0,27,192,0.1)"/><circle cx="3.5" cy="3.5" r="3.5" transform="translate(98 118)" fill="rgba(0,27,192,0.1)"/><circle cx="3.5" cy="3.5" r="3.5" transform="translate(98 138)" fill="rgba(0,27,192,0.1)"/><circle cx="3.5" cy="3.5" r="3.5" transform="translate(98 157)" fill="rgba(0,27,192,0.1)"/><circle cx="3.5" cy="3.5" r="3.5" transform="translate(98 177)" fill="rgba(0,27,192,0.1)"/><circle cx="3.5" cy="3.5" r="3.5" transform="translate(118 39)" fill="rgba(0,27,192,0.1)"/><circle cx="3.5" cy="3.5" r="3.5" transform="translate(118 59)" fill="rgba(0,27,192,0.1)"/><circle cx="3.5" cy="3.5" r="3.5" transform="translate(118 79)" fill="rgba(0,27,192,0.1)"/><circle cx="3.5" cy="3.5" r="3.5" transform="translate(118 98)" fill="rgba(0,27,192,0.1)"/><circle cx="3.5" cy="3.5" r="3.5" transform="translate(118 118)" fill="rgba(0,27,192,0.1)"/><circle cx="3.5" cy="3.5" r="3.5" transform="translate(118 138)" fill="rgba(0,27,192,0.1)"/><circle cx="3.5" cy="3.5" r="3.5" transform="translate(118 157)" fill="rgba(0,27,192,0.1)"/><circle cx="3.5" cy="3.5" r="3.5" transform="translate(118 177)" fill="rgba(0,27,192,0.1)"/><circle cx="3.5" cy="3.5" r="3.5" transform="translate(138 39)" fill="rgba(0,27,192,0.1)"/><circle cx="3.5" cy="3.5" r="3.5" transform="translate(138 59)" fill="rgba(0,27,192,0.1)"/><circle cx="3.5" cy="3.5" r="3.5" transform="translate(138 79)" fill="rgba(0,27,192,0.1)"/><circle cx="3.5" cy="3.5" r="3.5" transform="translate(138 98)" fill="rgba(0,27,192,0.1)"/><circle cx="3.5" cy="3.5" r="3.5" transform="translate(138 118)" fill="rgba(0,27,192,0.1)"/><circle cx="3.5" cy="3.5" r="3.5" transform="translate(138 138)" fill="rgba(0,27,192,0.1)"/><circle cx="3.5" cy="3.5" r="3.5" transform="translate(138 157)" fill="rgba(0,27,192,0.1)"/><circle cx="3.5" cy="3.5" r="3.5" transform="translate(138 177)" fill="rgba(0,27,192,0.1)"/><circle cx="3.5" cy="3.5" r="3.5" transform="translate(157 39)" fill="rgba(0,27,192,0.1)"/><circle cx="3.5" cy="3.5" r="3.5" transform="translate(157 59)" fill="rgba(0,27,192,0.1)"/><circle cx="3.5" cy="3.5" r="3.5" transform="translate(157 79)" fill="rgba(0,27,192,0.1)"/><circle cx="3.5" cy="3.5" r="3.5" transform="translate(157 98)" fill="rgba(0,27,192,0.1)"/><circle cx="3.5" cy="3.5" r="3.5" transform="translate(157 118)" fill="rgba(0,27,192,0.1)"/><circle cx="3.5" cy="3.5" r="3.5" transform="translate(157 138)" fill="rgba(0,27,192,0.1)"/><circle cx="3.5" cy="3.5" r="3.5" transform="translate(157 157)" fill="rgba(0,27,192,0.1)"/><circle cx="3.5" cy="3.5" r="3.5" transform="translate(157 177)" fill="rgba(0,27,192,0.1)"/><circle cx="3.5" cy="3.5" r="3.5" transform="translate(177 39)" fill="rgba(0,27,192,0.1)"/><circle cx="3.5" cy="3.5" r="3.5" transform="translate(177 59)" fill="rgba(0,27,192,0.1)"/><circle cx="3.5" cy="3.5" r="3.5" transform="translate(177 79)" fill="rgba(0,27,192,0.1)"/><circle cx="3.5" cy="3.5" r="3.5" transform="translate(177 98)" fill="rgba(0,27,192,0.1)"/><circle cx="3.5" cy="3.5" r="3.5" transform="translate(177 118)" fill="rgba(0,27,192,0.1)"/><circle cx="3.5" cy="3.5" r="3.5" transform="translate(177 138)" fill="rgba(0,27,192,0.1)"/><circle cx="3.5" cy="3.5" r="3.5" transform="translate(177 157)" fill="rgba(0,27,192,0.1)"/><circle cx="3.5" cy="3.5" r="3.5" transform="translate(177 177)" fill="rgba(0,27,192,0.1)"/><circle cx="3.5" cy="3.5" r="3.5" transform="translate(20)" fill="rgba(0,27,192,0.1)"/><circle cx="3.5" cy="3.5" r="3.5" transform="translate(39)" fill="rgba(0,27,192,0.1)"/><circle cx="3.5" cy="3.5" r="3.5" transform="translate(59)" fill="rgba(0,27,192,0.1)"/><circle cx="3.5" cy="3.5" r="3.5" transform="translate(79)" fill="rgba(0,27,192,0.1)"/><circle cx="3.5" cy="3.5" r="3.5" transform="translate(98)" fill="rgba(0,27,192,0.1)"/><circle cx="3.5" cy="3.5" r="3.5" transform="translate(118)" fill="rgba(0,27,192,0.1)"/><circle cx="3.5" cy="3.5" r="3.5" transform="translate(138)" fill="rgba(0,27,192,0.1)"/><circle cx="3.5" cy="3.5" r="3.5" transform="translate(157)" fill="rgba(0,27,192,0.1)"/><circle cx="3.5" cy="3.5" r="3.5" transform="translate(177)" fill="rgba(0,27,192,0.1)"/></svg>