<svg xmlns="http://www.w3.org/2000/svg" xmlns:xlink="http://www.w3.org/1999/xlink" width="418.063" height="299.851" viewBox="0 0 418.063 299.851">
  <defs>
    <linearGradient id="linear-gradient" x1="0.5" y1="1" x2="0.5" gradientUnits="objectBoundingBox">
      <stop offset="0" stop-color="gray" stop-opacity="0.251"/>
      <stop offset="0.54" stop-color="gray" stop-opacity="0.122"/>
      <stop offset="1" stop-color="gray" stop-opacity="0.102"/>
    </linearGradient>
    <linearGradient id="linear-gradient-2" x1="0.5" y1="1" x2="0.5" y2="0" xlink:href="#linear-gradient"/>
    <linearGradient id="linear-gradient-3" x1="0.5" y1="1" x2="0.5" y2="0" xlink:href="#linear-gradient"/>
    <linearGradient id="linear-gradient-4" x1="0.5" x2="0.5" y2="1" gradientUnits="objectBoundingBox">
      <stop offset="0" stop-color="#e0e0e0"/>
      <stop offset="0.31" stop-color="#fccc63"/>
      <stop offset="0.77" stop-color="#f55f44"/>
    </linearGradient>
    <linearGradient id="linear-gradient-5" x1="0.5" y1="0" x2="0.5" y2="1" xlink:href="#linear-gradient-4"/>
    <linearGradient id="linear-gradient-8" x1="0.5" y1="0.999" x2="0.5" y2="-0.001" xlink:href="#linear-gradient"/>
    <linearGradient id="linear-gradient-9" x1="0.503" y1="1" x2="0.503" y2="0.002" xlink:href="#linear-gradient"/>
  </defs>
  <g id="undraw_Outer_space_drqu" transform="translate(0.018 -0.014)">
    <path id="Path_1" data-name="Path 1" d="M397.357,358.156a51.531,51.531,0,0,1-10.2-.136c-37.24-4.117-87.951-2.946-129.29,22.667-57.171,35.417-146.768,5.1-186.291-11.4-30.2-12.6-45.876-43.456-36.459-72.421.133-.409.269-.818.412-1.226,5.926-17.213,17.622-30.684,32.106-37.825,12.624-6.224,31.056-19.22,39.258-44.193a105.754,105.754,0,0,1,14.072-28.468c16.164-22.645,50-56.368,108.195-56.158a93.785,93.785,0,0,1,29.981,5.075c21.26,7.244,40.462,21.971,55.1,42.388,9.343,13.022,23.345,25.127,43.39,26.114,27.819,1.377,54.368,14.33,74.284,37.38.575.663,1.142,1.329,1.709,2C469.089,284.2,444.459,354.039,397.357,358.156Z" transform="translate(-32.41 -97.277)" fill="#831bea"/>
    <g id="Group_1" data-name="Group 1" transform="translate(97.087 246.571)" opacity="0.7">
      <circle id="Ellipse_1" data-name="Ellipse 1" cx="5.082" cy="5.082" r="5.082" fill="url(#linear-gradient)"/>
    </g>
    <circle id="Ellipse_2" data-name="Ellipse 2" cx="4.854" cy="4.854" r="4.854" transform="translate(97.316 246.8)" opacity="0.2"/>
    <circle id="Ellipse_3" data-name="Ellipse 3" cx="1.878" cy="1.878" r="1.878" transform="translate(72.91 150.647)" fill="#fff"/>
    <circle id="Ellipse_4" data-name="Ellipse 4" cx="1.878" cy="1.878" r="1.878" transform="translate(206.962 259.656)" fill="#fff"/>
    <circle id="Ellipse_5" data-name="Ellipse 5" cx="1.05" cy="1.05" r="1.05" transform="translate(128.611 270.06)" fill="#fff"/>
    <circle id="Ellipse_6" data-name="Ellipse 6" cx="1.05" cy="1.05" r="1.05" transform="translate(360.992 219.238)" fill="#fff"/>
    <circle id="Ellipse_7" data-name="Ellipse 7" cx="1.05" cy="1.05" r="1.05" transform="translate(300.963 124.96)" fill="#fff"/>
    <circle id="Ellipse_8" data-name="Ellipse 8" cx="1.05" cy="1.05" r="1.05" transform="translate(386.034 170.994)" fill="#fff"/>
    <circle id="Ellipse_9" data-name="Ellipse 9" cx="1.878" cy="1.878" r="1.878" transform="translate(106.055 89.146)" fill="#fff"/>
    <path id="Path_2" data-name="Path 2" d="M146.035,589.342h-1.672V587.67h-.681v1.672H142.01v.681h1.672v1.668h.681v-1.668h1.672Z" transform="translate(-89.723 -371.238)" fill="#fff"/>
    <path id="Path_3" data-name="Path 3" d="M260.035,587.342h-1.672V585.67h-.681v1.672H256.01v.681h1.672v1.668h.681v-1.668h1.672Z" transform="translate(-161.74 -369.975)" fill="#fff"/>
    <path id="Path_4" data-name="Path 4" d="M423.035,679.342h-1.672V677.67h-.681v1.672H419.01v.681h1.672v1.668h.681v-1.668h1.672Z" transform="translate(-264.711 -428.093)" fill="#fff"/>
    <path id="Path_5" data-name="Path 5" d="M653.824,129.4h-.762v-.762h-.309v.762h-.762v.309h.762v.762h.309v-.762h.762Z" transform="translate(-411.891 -81.256)" fill="#fff"/>
    <path id="Path_6" data-name="Path 6" d="M948.824,319.4h-.762v-.762h-.309v.762h-.762v.309h.762v.762h.309v-.762h.762Z" transform="translate(-598.251 -201.285)" fill="#fff"/>
    <path id="Path_7" data-name="Path 7" d="M774.824,443.4h-.762v-.762h-.309v.762h-.762v.309h.762v.762h.309v-.762h.762Z" transform="translate(-488.33 -279.619)" fill="#fff"/>
    <path id="Path_8" data-name="Path 8" d="M66.824,521.4h-.762v-.762h-.309v.762H64.99v.309h.762v.762h.309v-.762h.762Z" transform="translate(-41.068 -328.893)" fill="#fff"/>
    <path id="Path_9" data-name="Path 9" d="M151.824,691.4h-.762v-.762h-.309v.762h-.762v.309h.762v.762h.309v-.762h.762Z" transform="translate(-94.764 -436.287)" fill="#fff"/>
    <path id="Path_10" data-name="Path 10" d="M418.824,154.4h-.762v-.762h-.309v.762h-.762v.309h.762v.762h.309v-.762h.762Z" transform="translate(-263.435 -97.05)" fill="#fff"/>
    <path id="Path_11" data-name="Path 11" d="M292.824,453.4h-.762v-.762h-.309v.762h-.762v.309h.762v.762h.309v-.762h.762Z" transform="translate(-183.838 -285.936)" fill="#fff"/>
    <path id="Path_12" data-name="Path 12" d="M319.824,367.4h-.762v-.762h-.309v.762h-.762v.309h.762v.762h.309v-.762h.762Z" transform="translate(-200.894 -231.607)" fill="#fff"/>
    <g id="Group_2" data-name="Group 2" transform="translate(271.27 200.397)" opacity="0.7">
      <circle id="Ellipse_10" data-name="Ellipse 10" cx="4.243" cy="4.243" r="4.243" fill="url(#linear-gradient-2)"/>
    </g>
    <circle id="Ellipse_11" data-name="Ellipse 11" cx="3.929" cy="3.929" r="3.929" transform="translate(271.583 200.71)" opacity="0.2"/>
    <circle id="Ellipse_12" data-name="Ellipse 12" cx="4.393" cy="4.393" r="4.393" transform="translate(281.699 227.907)" opacity="0.2"/>
    <g id="Group_3" data-name="Group 3" transform="translate(139.604 0.014)" opacity="0.7">
      <path id="Path_13" data-name="Path 13" d="M518.635,155.97a57,57,0,0,0-6.445-26.516,33.233,33.233,0,0,0-5.288-7.7,3.775,3.775,0,0,0-4.324-.832,3.918,3.918,0,0,0-1.514.976,33.993,33.993,0,0,0-5.156,7.413,57.241,57.241,0,0,0-6.765,27.252v5.7h-3.657V95.971a88.8,88.8,0,0,0-9.207-39.748,50.144,50.144,0,0,0-7.546-11.538,5.23,5.23,0,0,0-7.863,0,51.243,51.243,0,0,0-7.365,11.107A89.216,89.216,0,0,0,443.85,96.6v65.634h-3.16v-5.977a57.227,57.227,0,0,0-6.765-27.234,34.769,34.769,0,0,0-5.156-7.413,3.782,3.782,0,0,0-4.419-.8l.133.07a3.963,3.963,0,0,0-1.234.862,33.447,33.447,0,0,0-5.285,7.7,57,57,0,0,0-6.445,26.516v99.066H422.8l-1.245,8.143v24.354h9.229V263.167l-1.234-8.146h11.122V164.794h3.16V254.63h9.012l-1.293,8.537v24.354h9.229V263.167l-1.293-8.548h12.153l-1.3,8.548v24.354h9.229V263.167l-1.293-8.548h7.2V164.8h3.657v90.363H492.1v-.136h9.8l-1.23,8.135v24.354H509.9V263.167l-1.234-8.146h9.969Z" transform="translate(-411.519 -42.904)" fill="url(#linear-gradient-3)"/>
    </g>
    <path id="Path_14" data-name="Path 14" d="M421.409,567.05H412.67l1.561-10.61h5.616Z" transform="translate(-260.706 -351.509)" fill="#535461"/>
    <g id="Group_4" data-name="Group 4" transform="translate(153.091 206.179)" opacity="0.1">
      <path id="Path_15" data-name="Path 15" d="M415.73,562.795h6.485l-.435-2.965h-5.616Z" transform="translate(-415.73 -559.83)"/>
    </g>
    <path id="Path_16" data-name="Path 16" d="M624.765,567.05H616.03l1.558-10.61h5.62Z" transform="translate(-389.174 -351.509)" fill="#535461"/>
    <g id="Group_5" data-name="Group 5" transform="translate(227.979 206.179)" opacity="0.1">
      <path id="Path_17" data-name="Path 17" d="M619.08,562.795h6.489l-.435-2.965h-5.62Z" transform="translate(-619.08 -559.83)"/>
    </g>
    <path id="Path_18" data-name="Path 18" d="M498.515,567.05H489.78l1.558-10.61h5.62Z" transform="translate(-309.419 -351.509)" fill="#535461"/>
    <g id="Group_6" data-name="Group 6" transform="translate(181.484 206.179)" opacity="0.1">
      <path id="Path_19" data-name="Path 19" d="M492.83,562.795h6.489l-.435-2.965h-5.62Z" transform="translate(-492.83 -559.83)"/>
    </g>
    <path id="Path_20" data-name="Path 20" d="M546.815,567.05H538.08l1.558-10.61h5.616Z" transform="translate(-339.931 -351.509)" fill="#535461"/>
    <g id="Group_7" data-name="Group 7" transform="translate(199.272 206.179)" opacity="0.1">
      <path id="Path_21" data-name="Path 21" d="M541.13,562.795h6.489l-.438-2.965h-5.616Z" transform="translate(-541.13 -559.83)"/>
    </g>
    <rect id="Rectangle_1" data-name="Rectangle 1" width="62.408" height="2.497" transform="translate(160.703 117.249)" fill="#535461"/>
    <path id="Path_22" data-name="Path 22" d="M636.139,252.176a3.517,3.517,0,0,0-5.215,0,33.567,33.567,0,0,0-4.891,7.218,57,57,0,0,0-6.4,26.516v96.06h27.62V285.5a56.8,56.8,0,0,0-6.1-25.831A32.245,32.245,0,0,0,636.139,252.176Z" transform="translate(-403.383 -174.362)" fill="#e0e0e0"/>
    <path id="Path_23" data-name="Path 23" d="M430.336,252.176a3.517,3.517,0,0,1,5.215,0,33.578,33.578,0,0,1,4.894,7.218,57.042,57.042,0,0,1,6.4,26.516v96.06H419.229V285.5a56.8,56.8,0,0,1,6.1-25.831A32.14,32.14,0,0,1,430.336,252.176Z" transform="translate(-276.785 -174.362)" fill="#e0e0e0"/>
    <path id="Path_24" data-name="Path 24" d="M387.25,307.33l6.555.033v8.08H387.25Z" transform="translate(-244.648 -194.14)" fill="#535461"/>
    <path id="Path_25" data-name="Path 25" d="M444.02,307.33l6.555.033v8.08H444.02Z" transform="translate(-280.511 -194.14)" fill="#535461"/>
    <path id="Path_26" data-name="Path 26" d="M587.22,307.33l6.552.033v8.08H587.22Z" transform="translate(-370.974 -194.14)" fill="#535461"/>
    <path id="Path_27" data-name="Path 27" d="M643.99,307.33l6.552.033v8.08H643.99Z" transform="translate(-406.837 -194.14)" fill="#535461"/>
    <g id="Group_8" data-name="Group 8" transform="translate(154.593 76.532)" opacity="0.1">
      <path id="Path_28" data-name="Path 28" d="M461.287,259.053a33.576,33.576,0,0,0-4.894-7.218,3.5,3.5,0,0,0-4.173-.784,3.722,3.722,0,0,1,1.053.784,33.567,33.567,0,0,1,4.891,7.218,56.99,56.99,0,0,1,6.4,26.516v96.053h3.123V285.573a57.038,57.038,0,0,0-6.4-26.519Z" transform="translate(-452.22 -250.678)"/>
    </g>
    <g id="Group_9" data-name="Group 9" transform="translate(215.932 76.797)" opacity="0.1">
      <path id="Path_29" data-name="Path 29" d="M627.993,259.774a33.564,33.564,0,0,1,4.891-7.218,3.654,3.654,0,0,1,1.208-.862,3.513,3.513,0,0,0-4.014.862,33.441,33.441,0,0,0-4.894,7.218,57.042,57.042,0,0,0-6.4,26.516v96.068h2.81V286.3A57,57,0,0,1,627.993,259.774Z" transform="translate(-618.779 -251.399)"/>
    </g>
    <path id="Path_30" data-name="Path 30" d="M449.569,651.857h-.239a4.25,4.25,0,0,1-4.25-4.25V628.14h8.739v19.467A4.25,4.25,0,0,1,449.569,651.857Z" transform="translate(-293.116 -412.599)" fill="url(#linear-gradient-4)"/>
    <path id="Path_31" data-name="Path 31" d="M526.679,651.857h-.243a4.25,4.25,0,0,1-4.246-4.25V628.14h8.735v19.467A4.25,4.25,0,0,1,526.679,651.857Z" transform="translate(-341.829 -412.599)" fill="url(#linear-gradient-5)"/>
    <path id="Path_32" data-name="Path 32" d="M574.975,651.857h-.247a4.25,4.25,0,0,1-4.239-4.25V628.14h8.735v19.467A4.25,4.25,0,0,1,574.975,651.857Z" transform="translate(-372.341 -412.599)" fill="url(#linear-gradient-5)"/>
    <path id="Path_33" data-name="Path 33" d="M652.929,651.857H652.7a4.25,4.25,0,0,1-4.257-4.25V628.14h8.735v19.467A4.25,4.25,0,0,1,652.929,651.857Z" transform="translate(-421.584 -412.599)" fill="url(#linear-gradient-5)"/>
    <path id="Path_34" data-name="Path 34" d="M525.891,46.666a4.861,4.861,0,0,0-7.443,0,51.668,51.668,0,0,0-7,10.816,88.939,88.939,0,0,0-9.141,39.744V251.389h39.405V96.608A88.652,88.652,0,0,0,533.009,57.9,47.991,47.991,0,0,0,525.891,46.666Z" transform="translate(-329.27 -44.172)" fill="#eee"/>
    <rect id="Rectangle_2" data-name="Rectangle 2" width="20.564" height="9.424" rx="4.712" transform="translate(182.206 19.619)" fill="#535461"/>
    <g id="Group_10" data-name="Group 10" transform="translate(173.254 58.325)" opacity="0.1">
      <rect id="Rectangle_3" data-name="Rectangle 3" width="39.004" height="1.514"/>
    </g>
    <path id="Path_35" data-name="Path 35" d="M754.472,345.635h0a12.751,12.751,0,0,0-3.764-3.314h0a12.643,12.643,0,1,0-6.323,23.6,7.175,7.175,0,0,0,.8-.029,12.639,12.639,0,0,0,9.292-20.229Z" transform="translate(-474.213 -230.971)" fill="url(#linear-gradient-8)"/>
    <path id="Path_36" data-name="Path 36" d="M757.481,354.388a11.95,11.95,0,0,1-11.194,11.925c-.249,0-.5.026-.757.026a11.954,11.954,0,1,1,5.977-22.3h0a12,12,0,0,1,3.558,3.152h0A11.9,11.9,0,0,1,757.481,354.388Z" transform="translate(-475.363 -232.108)" opacity="0.2"/>
    <path id="Path_37" data-name="Path 37" d="M753.032,354.1a12.842,12.842,0,0,0-1.782.939,2.8,2.8,0,0,0-.954.854,1.1,1.1,0,0,0-.022,1.219,1.716,1.716,0,0,0,1.344.486,3.44,3.44,0,0,0,1.539-.155,3.314,3.314,0,0,0,.9-.652l1.028-.932c.368-.324.737-.77.593-1.226a1.1,1.1,0,0,0-.873-.589,3.653,3.653,0,0,0-2.578.453" transform="translate(-485.807 -239.403)" opacity="0.1"/>
    <g id="Group_11" data-name="Group 11" transform="translate(262.306 126.367)" opacity="0.1">
      <circle id="Ellipse_13" data-name="Ellipse 13" cx="0.63" cy="0.63" r="0.63"/>
    </g>
    <g id="Group_12" data-name="Group 12" transform="translate(273.417 120.707)" opacity="0.1">
      <circle id="Ellipse_14" data-name="Ellipse 14" cx="2.305" cy="2.305" r="2.305"/>
    </g>
    <g id="Group_13" data-name="Group 13" transform="translate(273.435 111.927)" opacity="0.1">
      <path id="Path_38" data-name="Path 38" d="M781.21,349.942h0a3.145,3.145,0,1,1-3.561-3.152h0A12,12,0,0,1,781.21,349.942Z" transform="translate(-774.92 -346.79)"/>
    </g>
    <g id="Group_14" data-name="Group 14" transform="translate(270.901 128.044)" opacity="0.1">
      <path id="Path_39" data-name="Path 39" d="M777.078,391.669a11.921,11.921,0,0,1-9.015,5.045c0-.166-.022-.331-.022-.5a5.664,5.664,0,0,1,9.037-4.544Z" transform="translate(-768.04 -390.555)"/>
    </g>
    <path id="Path_40" data-name="Path 40" d="M322.825,533.393h0a8.892,8.892,0,0,0-2.629-2.328h0a8.839,8.839,0,1,0-4.419,16.462c.188,0,.368,0,.56-.018a8.839,8.839,0,0,0,6.482-14.116Z" transform="translate(-205.814 -350.507)" fill="url(#linear-gradient-9)"/>
    <path id="Path_41" data-name="Path 41" d="M325.088,539.566a8.337,8.337,0,0,1-7.809,8.319h-.528a8.338,8.338,0,1,1,4.169-15.56h0a8.349,8.349,0,0,1,2.482,2.21h0A8.294,8.294,0,0,1,325.088,539.566Z" transform="translate(-206.781 -351.366)" opacity="0.2"/>
    <path id="Path_42" data-name="Path 42" d="M321.983,539.39a8.655,8.655,0,0,0-1.241.652,2.04,2.04,0,0,0-.667.6.785.785,0,0,0,0,.851,1.19,1.19,0,0,0,.935.339,2.4,2.4,0,0,0,1.075-.107,2.318,2.318,0,0,0,.63-.457l.714-.648c.25-.228.523-.538.412-.854a.737.737,0,0,0-.608-.412,2.53,2.53,0,0,0-1.793.317" transform="translate(-214.068 -356.478)" opacity="0.1"/>
    <g id="Group_15" data-name="Group 15" transform="translate(104.482 191.051)" opacity="0.1">
      <circle id="Ellipse_15" data-name="Ellipse 15" cx="0.438" cy="0.438" r="0.438"/>
    </g>
    <g id="Group_16" data-name="Group 16" transform="translate(112.234 187.103)" opacity="0.1">
      <circle id="Ellipse_16" data-name="Ellipse 16" cx="1.609" cy="1.609" r="1.609"/>
    </g>
    <g id="Group_17" data-name="Group 17" transform="translate(112.205 180.967)" opacity="0.1">
      <path id="Path_43" data-name="Path 43" d="M341.539,536.47h0a2.21,2.21,0,1,1-2.486-2.21h0A8.349,8.349,0,0,1,341.539,536.47Z" transform="translate(-337.12 -534.26)"/>
    </g>
    <g id="Group_18" data-name="Group 18" transform="translate(110.496 192.203)" opacity="0.1">
      <path id="Path_44" data-name="Path 44" d="M338.77,565.565a8.319,8.319,0,0,1-6.29,3.521c0-.114,0-.232,0-.368a3.951,3.951,0,0,1,6.3-3.171Z" transform="translate(-332.48 -564.77)"/>
    </g>
    <path id="Path_45" data-name="Path 45" d="M837.69,539.42l8.028,4.272L839.45,550.7" transform="translate(-529.203 -340.757)" fill="none"/>
    <circle id="Ellipse_17" data-name="Ellipse 17" cx="0.678" cy="0.678" r="0.678" transform="translate(350.975 157.037)" fill="#fff"/>
  </g>
</svg>
