<svg xmlns="http://www.w3.org/2000/svg" width="36.001" height="28.286" viewBox="0 0 36.001 28.286"><path d="M36,24.429V27a1.3,1.3,0,0,1-1.286,1.286H1.286a1.236,1.236,0,0,1-.9-.382A1.236,1.236,0,0,1,0,27V24.429a1.236,1.236,0,0,1,.382-.9,1.236,1.236,0,0,1,.9-.382H34.715A1.3,1.3,0,0,1,36,24.429Zm0-7.714v2.571a1.3,1.3,0,0,1-1.286,1.286H1.286a1.236,1.236,0,0,1-.9-.382,1.236,1.236,0,0,1-.382-.9V16.714a1.236,1.236,0,0,1,.382-.9,1.236,1.236,0,0,1,.9-.382H34.715A1.3,1.3,0,0,1,36,16.714ZM36,9v2.571a1.3,1.3,0,0,1-1.286,1.286H1.286a1.236,1.236,0,0,1-.9-.382,1.237,1.237,0,0,1-.382-.9V9a1.236,1.236,0,0,1,.382-.9,1.236,1.236,0,0,1,.9-.382H34.715A1.3,1.3,0,0,1,36,9Zm0-7.714V3.858a1.236,1.236,0,0,1-.382.9,1.236,1.236,0,0,1-.9.382H1.286a1.236,1.236,0,0,1-.9-.382A1.237,1.237,0,0,1,0,3.857V1.286a1.236,1.236,0,0,1,.382-.9A1.236,1.236,0,0,1,1.286,0H34.715a1.236,1.236,0,0,1,.9.382,1.236,1.236,0,0,1,.382.9Z" fill="#fff"/></svg>