<svg xmlns="http://www.w3.org/2000/svg" xmlns:xlink="http://www.w3.org/1999/xlink" width="1482.805" height="699.171" viewBox="0 0 1482.805 699.171"><defs><linearGradient id="a" x1="0.495" y1="1.159" x2="0.492" y2="0.095" gradientUnits="objectBoundingBox"><stop offset="0" stop-color="#ff869b" stop-opacity="0.106"/><stop offset="1" stop-color="#fff" stop-opacity="0.02"/></linearGradient></defs><g transform="translate(0 -65)" opacity="0.678"><path d="M0,0H1440V696.007s-129.219-92.8-272.5-92.8-135.573,83.768-288.752,92.8S692.461,639.4,553.68,639.4,406.1,671.528,279.51,696.007,0,594.92,0,594.92Z" transform="translate(0 65)" fill="url(#a)"/><g transform="translate(1192.805)"><path d="M82.39,125.22c25.8-51.593,99.423-51.593,125.22,0L290,290H161.8c-74.338,0-122.688-78.231-89.443-144.721Z" transform="translate(0 113)" fill="#001bc0" opacity="0.05"/><path d="M82.39,125.22c25.8-51.593,99.423-51.593,125.22,0L290,290H161.8c-74.338,0-122.688-78.231-89.443-144.721Z" fill="#001bc0" opacity="0.1"/></g></g></svg>