<svg xmlns="http://www.w3.org/2000/svg" width="968.216" height="928.954" viewBox="0 0 968.216 928.954"><g transform="translate(-88.578 -67.829)"><g transform="translate(76.805 639)"><path d="M99.8,149.121S236.315-95.038,351.32,60.57s71.957,328.22-187.012,247.6S54.535,170.221,54.535,170.221Z" fill="#8018b4" opacity="0.457"/><path d="M99.8,149.121S236.315-95.038,351.32,60.57s71.957,328.22-187.012,247.6S54.535,170.221,54.535,170.221Z" transform="translate(69.69)" fill="#8018b4" opacity="0.457"/></g><path d="M88.026,25.052a25,25,0,0,1,25-25L716.583,0a25,25,0,0,1,22.828,35.2L551.183,456.567,725.294,590.983c18.374,14.185,9.179,43.574-14,44.756L114.247,666.188a25,25,0,0,1-26.273-24.97Z" transform="translate(580.096 0.436) rotate(50)" fill="rgba(128,24,180,0.39)"/></g></svg>