<svg xmlns="http://www.w3.org/2000/svg" xmlns:xlink="http://www.w3.org/1999/xlink" width="115" height="111" viewBox="0 0 115 111"><defs><clipPath id="a"><path d="M0,111H115V0H0Z" fill="none"/></clipPath></defs><path d="M71.951,63.232s-15.728,3.815-26.324-5.561a47.865,47.865,0,0,1-7.12.511C17.251,58.182,0,45.153,0,29.083,0,13.029,17.251,0,38.508,0S77,13.029,77,29.083c0,10.248-7.02,19.278-17.632,24.461,2.384,3.47,6.275,6.941,12.582,9.689" transform="translate(37 8)" fill="#fff"/><path d="M8.137,1.693A4.61,4.61,0,0,1,1.693,8.138a2.69,2.69,0,0,1-.831-.829A4.61,4.61,0,0,1,7.307.863a2.694,2.694,0,0,1,.831.831" transform="translate(91 34)" fill="#919bce"/><path d="M8.137,1.693A4.61,4.61,0,0,1,1.693,8.138a2.69,2.69,0,0,1-.831-.829A4.61,4.61,0,0,1,7.307.863a2.694,2.694,0,0,1,.831.831" transform="translate(76 34)" fill="#919bce"/><path d="M8.137,1.693A4.61,4.61,0,0,1,1.693,8.138a2.69,2.69,0,0,1-.831-.829A4.61,4.61,0,0,1,7.307.863a2.694,2.694,0,0,1,.831.831" transform="translate(61 34)" fill="#919bce"/><path d="M5.377,67.184s16.749,4.055,28.032-5.908a51.191,51.191,0,0,0,7.581.542C63.628,61.818,82,47.975,82,30.9,82,13.841,63.628,0,40.991,0S0,13.841,0,30.9C0,41.788,7.475,51.383,18.777,56.889c-2.539,3.688-6.682,7.375-13.4,10.295" transform="translate(1 34)" fill="#fff"/><path d="M0,111H115V0H0Z" fill="none"/><g clip-path="url(#a)"><path d="M0,16H48V0H0Z" transform="translate(18 57)" fill="#fff"/><path d="M.576,28.949a.859.859,0,0,0,1.1-.54A58.32,58.32,0,0,1,20.663,1.589.9.9,0,0,0,20.821.345.851.851,0,0,0,19.61.182,60.067,60.067,0,0,0,.05,27.816a.9.9,0,0,0,.526,1.133" transform="translate(1 7)" fill="#f2617a"/><path d="M.819,4a.759.759,0,0,0,.44-.143C2.334,3.1,3.449,2.37,4.572,1.7A.954.954,0,0,0,4.9.471.784.784,0,0,0,3.79.109C2.633.8,1.485,1.554.376,2.337A.959.959,0,0,0,.13,3.584.8.8,0,0,0,.819,4" transform="translate(25 2)" fill="#f2617a"/><path d="M31.581.134a.9.9,0,0,0-1.234.28A59.121,59.121,0,0,1,.587,24.284a.882.882,0,0,0-.533,1.134.9.9,0,0,0,1.146.529A60.933,60.933,0,0,0,31.864,1.354a.88.88,0,0,0-.283-1.22" transform="translate(77 85)" fill="#f2617a"/><path d="M57.2,106a51.975,51.975,0,0,1-14.892-2.174,53.006,53.006,0,0,1-13.248-6.062,35.71,35.71,0,0,1-15.185,3.111,32.782,32.782,0,0,1-7.8-.859.888.888,0,0,1-.144-1.675,30.6,30.6,0,0,0,12.481-9.316,41.012,41.012,0,0,1-7.747-5.2,33.531,33.531,0,0,1-5.786-6.377A28.088,28.088,0,0,1,1.252,70.18,25.48,25.48,0,0,1,0,62.309a25.14,25.14,0,0,1,1.216-7.7A28.01,28.01,0,0,1,4.66,47.569,52.955,52.955,0,0,1,57.2,0,51.734,51.734,0,0,1,78.861,4.743c9.81.619,18.918,4.032,25.646,9.611C111.274,19.965,115,27.259,115,34.892a23.806,23.806,0,0,1-1.313,7.774,26.833,26.833,0,0,1-3.775,7.127c.081,1.274.117,2.263.117,3.207A53.064,53.064,0,0,1,107.9,67.854c.444.217.965.47,1.517.711a.888.888,0,0,1-.146,1.674c-.007,0-.828.207-2.269.414a53.119,53.119,0,0,1-33.36,32.717A52.447,52.447,0,0,1,57.2,106ZM34.686,94.092a25.5,25.5,0,0,1-3.835,2.73,50.754,50.754,0,0,0,26.347,7.4,51.334,51.334,0,0,0,47.848-33.351c-1.252.114-2.43.168-3.6.168-4.759,0-11.679-.926-17.622-5.339a26.947,26.947,0,0,1-4.714,11.861,35.124,35.124,0,0,1-9.558,9.119,46.923,46.923,0,0,1-12.883,5.854A53,53,0,0,1,41.98,94.605,51.9,51.9,0,0,1,34.686,94.092ZM42.02,31.818C19.826,31.818,1.769,45.5,1.769,62.309c0,10.364,6.859,19.932,18.348,25.594a.891.891,0,0,1,.339,1.3A30.019,30.019,0,0,1,9.174,98.755a40.773,40.773,0,0,0,5.257.346c5.471,0,13.277-1.146,19.392-6.607a.876.876,0,0,1,.586-.227.855.855,0,0,1,.134.011,49.94,49.94,0,0,0,7.448.556c10.18,0,20.339-3.1,27.872-8.5,8.012-5.744,12.424-13.566,12.424-22.026C82.287,45.5,64.223,31.818,42.02,31.818Zm23.331-1.775a5.432,5.432,0,0,1,5.418,5.433,5.281,5.281,0,0,1-.792,2.764A34.443,34.443,0,0,1,80.253,48.907a25.838,25.838,0,0,1,3.8,13.4c0,.461-.023.93-.044,1.334,5.657,4.648,12.6,5.624,17.433,5.624a37.942,37.942,0,0,0,4.243-.241l.044-.129c.017-.049.033-.1.048-.143a27.853,27.853,0,0,1-10.03-8.66.891.891,0,0,1,.34-1.3c10.733-5.289,17.141-14.225,17.141-23.9,0-15.706-16.875-28.484-37.617-28.484-18.408,0-33.992,9.989-37.055,23.752,1.288-.079,2.421-.117,3.461-.117A52.166,52.166,0,0,1,60.4,33.3,5.42,5.42,0,0,1,65.351,30.043ZM108.219,51.9A36.166,36.166,0,0,1,97.8,59.918a26.56,26.56,0,0,0,8.5,7.1A51.316,51.316,0,0,0,108.26,53c0-.22-.011-.44-.022-.653-.007-.146-.015-.3-.019-.448ZM57.2,1.775A50.9,50.9,0,0,0,6.817,44.724,36.114,36.114,0,0,1,12.5,39.375a42.47,42.47,0,0,1,7.032-4.305,50.01,50.01,0,0,1,17.153-4.759c2.839-14.274,18.55-25.05,37.355-25.622A50.2,50.2,0,0,0,57.2,1.775Zm8.153,30.043a3.636,3.636,0,0,0-3.288,2.135,44.993,44.993,0,0,1,6.442,3.324,3.566,3.566,0,0,0,.494-1.8A3.658,3.658,0,0,0,65.351,31.818Z" transform="translate(0 3)" fill="#001bc0"/><path d="M.846,1.863A51.033,51.033,0,0,1,22.7,7.9.869.869,0,0,0,23.9,7.5a.951.951,0,0,0-.375-1.252A52.77,52.77,0,0,0,.929.011.864.864,0,0,0,0,.892a.914.914,0,0,0,.845.971" transform="translate(78)" fill="#f2617a"/><path d="M5.439,5.734a.956.956,0,0,0,1.273.044A.785.785,0,0,0,6.76,4.606,41.742,41.742,0,0,0,1.45.17.954.954,0,0,0,.186.326.785.785,0,0,0,.353,1.488,39.856,39.856,0,0,1,5.439,5.734" transform="translate(106 11)" fill="#f2617a"/><path d="M5.5,11A5.5,5.5,0,1,1,11,5.5,5.507,5.507,0,0,1,5.5,11Zm0-9.2A3.7,3.7,0,1,0,9.2,5.5,3.706,3.706,0,0,0,5.5,1.8Z" transform="translate(90 33)" fill="#001bc0"/><path d="M5.5,11A5.5,5.5,0,1,1,11,5.5,5.507,5.507,0,0,1,5.5,11Zm0-9.2A3.7,3.7,0,1,0,9.2,5.5,3.707,3.707,0,0,0,5.5,1.8Z" transform="translate(75 33)" fill="#001bc0"/><path d="M49.112,18H.888A.9.9,0,0,1,0,17.1V.9A.9.9,0,0,1,.888,0H49.112A.9.9,0,0,1,50,.9V17.1A.9.9,0,0,1,49.112,18ZM1.777,1.8V16.2H48.225V1.8Z" transform="translate(17 56)" fill="#001bc0"/><path d="M3,6A3,3,0,1,0,0,3,3,3,0,0,0,3,6" transform="translate(24 61)" fill="#4358a7"/><path d="M3,6A3,3,0,1,0,0,3,3,3,0,0,0,3,6" transform="translate(34 61)" fill="#4358a7"/><path d="M3,6A3,3,0,1,0,0,3,3,3,0,0,0,3,6" transform="translate(45 61)" fill="#4358a7"/><path d="M3,6A3,3,0,1,0,0,3,3,3,0,0,0,3,6" transform="translate(55 61)" fill="#4358a7"/></g></svg>