<svg xmlns="http://www.w3.org/2000/svg" xmlns:xlink="http://www.w3.org/1999/xlink" width="114.526" height="111.938" viewBox="0 0 114.526 111.938"><defs><clipPath id="a"><path d="M0,0H30.288V5.909H0Z" transform="translate(0.069 0.062)" fill="none"/></clipPath><clipPath id="b"><path d="M0,0H2.979V17.386H0Z" transform="translate(0.547 0.339)" fill="none"/></clipPath></defs><g transform="translate(0 -0.062)"><path d="M89,82.93V5.07A5.1,5.1,0,0,0,83.872,0H5.128A5.1,5.1,0,0,0,0,5.07V82.93A5.1,5.1,0,0,0,5.128,88H83.872A5.1,5.1,0,0,0,89,82.93" transform="translate(13 18)" fill="none"/><path d="M89,15V4.928A5.031,5.031,0,0,0,83.872,0H5.128A5.031,5.031,0,0,0,0,4.928V15Z" transform="translate(13 17)" fill="#919bce"/><path d="M55,26.994a26.525,26.525,0,0,1-6.071,16.915,27.786,27.786,0,0,1-42.845,0,26.58,26.58,0,0,1-.013-33.832,27.835,27.835,0,0,1,42.871,0A26.589,26.589,0,0,1,55,26.994" transform="translate(30 43)" fill="#fff"/><path d="M20.966,4.6C27.846,15.982,15.982,27.846,4.6,20.966A7.64,7.64,0,0,1,2.034,18.4C-4.846,7.018,7.018-4.846,18.4,2.034A7.654,7.654,0,0,1,20.966,4.6" transform="translate(68 41)" fill="#fff"/><path d="M8,3A2.885,2.885,0,0,1,5.247,6C3.726,6,0,3,0,3S3.726,0,5.247,0A2.884,2.884,0,0,1,8,3" transform="translate(80 49)" fill="#919bce"/><path d="M0,3A2.885,2.885,0,0,0,2.753,6C4.274,6,8,3,8,3S4.274,0,2.753,0A2.884,2.884,0,0,0,0,3" transform="translate(70 49)" fill="#919bce"/><g transform="translate(34)"><path d="M0,0H30.288V5.909H0Z" transform="translate(0.069 0.062)" fill="none"/><g clip-path="url(#a)"><path d="M1.23,5.841A60.33,60.33,0,0,1,24.04,1.531c1.72.006,3.5.089,5.293.246a.828.828,0,0,0,.952-.685.8.8,0,0,0-.778-.837C27.657.091,25.82.006,24.047,0A62.758,62.758,0,0,0,.509,4.447.732.732,0,0,0,.078,5.461a.921.921,0,0,0,1.153.38" transform="translate(0.069 0.061)" fill="#f2617a"/></g></g><path d="M2.957,4.822C2.523,3.383,2.029,1.939,1.49.532A.745.745,0,0,0,.467.074a.941.941,0,0,0-.4,1.17c.522,1.365,1,2.764,1.422,4.159a.757.757,0,0,0,.988.549.923.923,0,0,0,.481-1.129" transform="translate(109 34)" fill="#f2617a"/><g transform="translate(111 41)"><path d="M0,0H2.979V17.386H0Z" transform="translate(0.547 0.339)" fill="none"/><g clip-path="url(#b)"><path d="M1.509.688A.768.768,0,0,0,.581.027a.926.926,0,0,0-.558,1.1A68.877,68.877,0,0,1,1.4,16.458a.853.853,0,0,0,.745.928h.021a.839.839,0,0,0,.765-.879A64.2,64.2,0,0,0,1.509.688" transform="translate(0.547 0.339)" fill="#f2617a"/></g></g><path d="M1.65.883A.858.858,0,0,0,.824,0h0A.857.857,0,0,0,0,.89,60.605,60.605,0,0,0,4.418,23.467a.805.805,0,0,0,1.085.46.912.912,0,0,0,.428-1.166A58.726,58.726,0,0,1,1.65.883" transform="translate(0 56)" fill="#f2617a"/><path d="M90.943,101h-77.9A5.939,5.939,0,0,1,7.09,95.09V77.637a51.225,51.225,0,0,1,0-52v-7.88a5.938,5.938,0,0,1,5.954-5.909h5.826a52.241,52.241,0,0,1,66.244,0h5.83A5.938,5.938,0,0,1,96.9,17.752v7.858a51.218,51.218,0,0,1,0,52.05V95.09A5.938,5.938,0,0,1,90.943,101ZM8.849,28.92V95.09a4.185,4.185,0,0,0,4.195,4.166h77.9a4.185,4.185,0,0,0,4.195-4.166V28.92H8.849Zm88.047.432h0V73.914a49.1,49.1,0,0,0,0-44.563Zm-89.806,0a49.158,49.158,0,0,0,0,44.538V29.353h0Zm5.954-15.764a4.184,4.184,0,0,0-4.195,4.163v9.423H95.138V17.752a4.184,4.184,0,0,0-4.195-4.163ZM52,1.743a50.709,50.709,0,0,0-30.2,10.1H82.166A50.668,50.668,0,0,0,52,1.743Z" transform="translate(5 5)" fill="#001bc0"/><path d="M2,0A2,2,0,1,0,4,2,2,2,0,0,0,2,0" transform="translate(92 24)" fill="#4358a7"/><path d="M2,0A2,2,0,1,0,4,2,2,2,0,0,0,2,0" transform="translate(83 24)" fill="#4358a7"/><path d="M2,0A2,2,0,1,0,4,2,2,2,0,0,0,2,0" transform="translate(74 24)" fill="#4358a7"/><path d="M5.2,0H.8A.917.917,0,0,0,0,1,.918.918,0,0,0,.8,2H5.2A.917.917,0,0,0,6,1a.917.917,0,0,0-.8-1" transform="translate(50 26)" fill="#4358a7"/><path d="M23.14,0H.86A.937.937,0,0,0,0,1,.937.937,0,0,0,.86,2H23.14A.938.938,0,0,0,24,1a.937.937,0,0,0-.86-1" transform="translate(22 26)" fill="#4358a7"/><path d="M28.075,58h-.01A27.79,27.79,0,0,1,8.128,49.654,28.176,28.176,0,0,1,8.087,10.1,27.816,27.816,0,0,1,27.961,1.731a.411.411,0,0,0,.055,0,.417.417,0,0,1,.056-.005.337.337,0,0,1,.047,0,.337.337,0,0,0,.047,0,27.72,27.72,0,0,1,12.5,3A12.55,12.55,0,1,1,55.5,24.079a27.433,27.433,0,0,1,.634,5.762.036.036,0,0,0,0,.011.034.034,0,0,1,0,.01.041.041,0,0,1,0,.012.041.041,0,0,0,0,.012,28.181,28.181,0,0,1-8.157,19.807A27.79,27.79,0,0,1,28.075,58Zm.875-16.25V56.156c4.633-.531,8.846-5.264,11.268-12.662A40.96,40.96,0,0,0,28.949,41.75Zm-1.757,0A40.906,40.906,0,0,0,15.927,43.5c2.422,7.4,6.633,12.131,11.265,12.659Zm14.656,2.279c-1.649,4.956-4.079,8.863-7.03,11.3A25.653,25.653,0,0,0,47.947,47.08,27.613,27.613,0,0,0,41.848,44.029Zm-27.553,0A27.65,27.65,0,0,0,8.2,47.08a26.053,26.053,0,0,0,13.117,8.246C18.373,52.889,15.944,48.982,14.3,44.031ZM44.018,30.743a45.744,45.744,0,0,1-1.655,11.6,29.277,29.277,0,0,1,6.685,3.389,26.564,26.564,0,0,0,5.295-14.992Zm-42.223,0A26.511,26.511,0,0,0,7.1,45.735a29.217,29.217,0,0,1,6.681-3.385,45.672,45.672,0,0,1-1.656-11.607Zm12.087,0a44.766,44.766,0,0,0,1.535,11.066A42.776,42.776,0,0,1,27.193,39.99V30.743Zm15.067,0V39.99a42.758,42.758,0,0,1,11.777,1.815A44.721,44.721,0,0,0,42.26,30.743Zm14.557-7.7a47.034,47.034,0,0,1,.512,5.942H54.344a25.7,25.7,0,0,0-.544-4.3,12.4,12.4,0,0,1-10.293-1.646Zm-4.214-4.751h0a43.254,43.254,0,0,1-10.343,1.447V28.98H42.26a46.494,46.494,0,0,0-.768-7.62,12.609,12.609,0,0,1-2.2-3.073Zm-23.876-.371A44.725,44.725,0,0,0,13.882,28.98h13.31V19.734a42.778,42.778,0,0,1-11.777-1.818h0ZM7.09,13.976a26.569,26.569,0,0,0-5.295,15h10.33a45.7,45.7,0,0,1,1.655-11.606A29.157,29.157,0,0,1,7.09,13.976ZM50.455,1.763A10.813,10.813,0,1,0,61.242,12.577,10.813,10.813,0,0,0,50.455,1.763Zm-21.505,1.8V17.974A41.554,41.554,0,0,0,38.6,16.647a12.179,12.179,0,0,1-.591-5.554C35.556,6.628,32.34,3.954,28.949,3.565Zm-1.757,0C22.559,4.1,18.347,8.83,15.927,16.23a40.918,40.918,0,0,0,11.265,1.744V3.565ZM21.316,4.4A25.821,25.821,0,0,0,8.193,12.632a27.638,27.638,0,0,0,6.1,3.062C15.943,10.741,18.371,6.835,21.316,4.4Zm13.509,0h0a18.786,18.786,0,0,1,3.712,4.275,12.552,12.552,0,0,1,1.1-2.433A25.727,25.727,0,0,0,34.824,4.4Z" transform="translate(29 40)" fill="#001bc0"/><path d="M14.337,8C12.852,8,10.111,6.013,9,5.159,7.622,6.22,5.092,8,3.663,8A3.847,3.847,0,0,1,0,4,3.847,3.847,0,0,1,3.663,0C5.152,0,7.892,1.988,9,2.843,10.109,1.988,12.85,0,14.337,0A3.847,3.847,0,0,1,18,4,3.847,3.847,0,0,1,14.337,8Zm0-6.118c-.659,0-2.4,1.064-3.839,2.119,1.436,1.053,3.18,2.118,3.839,2.118A2.037,2.037,0,0,0,16.277,4,2.037,2.037,0,0,0,14.337,1.882Zm-10.674,0A2.037,2.037,0,0,0,1.724,4a2.037,2.037,0,0,0,1.94,2.118c.658,0,2.4-1.064,3.84-2.118C6.068,2.947,4.324,1.882,3.663,1.882Z" transform="translate(71 49)" fill="#001bc0"/><path d="M8.161,0H.839A.93.93,0,0,0,0,1,.929.929,0,0,0,.839,2H8.161A.929.929,0,0,0,9,1a.93.93,0,0,0-.839-1" transform="translate(31 110)" fill="#f2617a"/><path d="M34.127,0H.873A.942.942,0,0,0,0,1,.942.942,0,0,0,.873,2H34.127A.942.942,0,0,0,35,1a.943.943,0,0,0-.873-1" transform="translate(45 110)" fill="#f2617a"/></g></svg>