<svg xmlns="http://www.w3.org/2000/svg" xmlns:xlink="http://www.w3.org/1999/xlink" width="100.962" height="111.478" viewBox="0 0 100.962 111.478"><defs><clipPath id="a"><path d="M0,0H31.431V9.911H0Z" transform="translate(0.525 0.522)" fill="none"/></clipPath><clipPath id="b"><path d="M0,0H100.962V101.177H0Z" transform="translate(0 0.433)" fill="none"/></clipPath></defs><g transform="translate(0 -0.522)"><path d="M93.15,68H2.851A2.854,2.854,0,0,1,0,65.145V0H93.15A2.853,2.853,0,0,1,96,2.858V65.145A2.853,2.853,0,0,1,93.15,68" transform="translate(3 25)" fill="#919bce"/><path d="M21.881,0H3.821A3.866,3.866,0,0,0,0,3.91V8H30L25.085,1.783A3.8,3.8,0,0,0,21.881,0" transform="translate(3 17)" fill="#fff"/><path d="M68.682,5.912,61.183,0H0V54.266A3.763,3.763,0,0,0,3.792,58H92.208A3.763,3.763,0,0,0,96,54.266V5.912Z" transform="translate(3 34)" fill="#fff"/><path d="M41,7.711v9.543A36.443,36.443,0,0,1,20.5,50,36.469,36.469,0,0,1,0,17.253V7.711A7.724,7.724,0,0,0,7.749,0h25.5A7.723,7.723,0,0,0,41,7.711" transform="translate(33 50)" fill="#fff"/><path d="M5.934,7.122,6.689,12H1.311l.756-4.878A3.774,3.774,0,0,1,0,3.8,3.9,3.9,0,0,1,4,0,3.9,3.9,0,0,1,8,3.8,3.772,3.772,0,0,1,5.934,7.122" transform="translate(49 66)" fill="#919bce"/><g transform="translate(49)"><path d="M0,0H31.431V9.911H0Z" transform="translate(0.525 0.522)" fill="none"/><g clip-path="url(#a)"><path d="M.865,1.684a56.948,56.948,0,0,1,29.245,8.1A.876.876,0,0,0,31.3,9.512a.826.826,0,0,0-.282-1.158A58.705,58.705,0,0,0,.869,0h0A.857.857,0,0,0,0,.84a.854.854,0,0,0,.865.844" transform="translate(0.525 0.522)" fill="#f2617a"/></g></g><path d="M2.477.288Q1.394,1.5.236,2.639a.77.77,0,0,0,.034,1.14.9.9,0,0,0,1.22-.031C2.283,2.96,3.056,2.153,3.8,1.323A.769.769,0,0,0,3.691.188a.9.9,0,0,0-1.214.1" transform="translate(91 93)" fill="#f2617a"/><path d="M19.589.2A55.684,55.684,0,0,1,.582,10.451a.785.785,0,0,0-.539,1.006.866.866,0,0,0,1.075.5A57.437,57.437,0,0,0,20.713,1.39.761.761,0,0,0,20.787.268a.892.892,0,0,0-1.2-.07" transform="translate(68 100)" fill="#f2617a"/><path d="M4.489,1.956C3.339,1.389,2.195.762,1.09.091.7-.144.241.092.067.622A1.236,1.236,0,0,0,.459,2.015c1.141.691,2.319,1.34,3.5,1.923.412.2.847-.095.991-.634a1.189,1.189,0,0,0-.465-1.348" transform="translate(26 108)" fill="#f2617a"/><path d="M10.586,7.351A52.355,52.355,0,0,1,1.322.215.75.75,0,0,0,.2.3.945.945,0,0,0,.273,1.54,54.049,54.049,0,0,0,9.821,8.892.759.759,0,0,0,10.9,8.543a.926.926,0,0,0-.316-1.192" transform="translate(13 100)" fill="#f2617a"/><g transform="translate(0 6)"><path d="M0,0H100.962V101.177H0Z" transform="translate(0 0.433)" fill="none"/><g clip-path="url(#b)"><path d="M50.482,101.177a49.806,49.806,0,0,1-20.023-4.163,50.508,50.508,0,0,1-16.24-11.3H6.635a4.626,4.626,0,0,1-4.616-4.626v-16.5a50.033,50.033,0,0,1,0-28.138c.007-18.289.008-22.626.008-22.985v-.023A4.618,4.618,0,0,1,6.634,8.834H22.085a50.221,50.221,0,0,1,65.672,7.707h5.995a5.2,5.2,0,0,1,5.188,5.2v0c0,.252,0,1.778,0,3.688V25.7c0,4.082,0,9.95,0,10.891a49.979,49.979,0,0,1,0,28.122V81.085a4.627,4.627,0,0,1-4.618,4.626H86.758a50.492,50.492,0,0,1-16.246,11.3A49.846,49.846,0,0,1,50.482,101.177ZM16.623,85.711a48.544,48.544,0,0,0,67.7,0H63.656A36.824,36.824,0,0,1,53.473,93.1a.931.931,0,0,1-.376.085,1,1,0,0,1-.377-.085A37.308,37.308,0,0,1,42.5,85.711H16.623Zm24.5-43.031A8.654,8.654,0,0,1,33.4,50.437v8.822A35.894,35.894,0,0,0,53.1,91.369a36.216,36.216,0,0,0,19.711-32.11V50.437a8.651,8.651,0,0,1-7.723-7.757Zm-.806-1.716H65.888a.858.858,0,0,1,.857.858,6.934,6.934,0,0,0,6.919,6.934.848.848,0,0,1,.856.858v9.646a37.882,37.882,0,0,1-9.265,24.73h28.5a3.475,3.475,0,0,0,3.477-3.466V33.165H70.994a.874.874,0,0,1-.535-.187l-7.2-5.779H3.74V80.523A3.466,3.466,0,0,0,7.2,83.989H40.9a37.751,37.751,0,0,1-9.214-24.73V49.612a.848.848,0,0,1,.857-.858,6.933,6.933,0,0,0,6.917-6.934A.858.858,0,0,1,40.319,40.964Zm-38.3,4.3a48.071,48.071,0,0,0-.306,5.327,48.769,48.769,0,0,0,.306,5.4Zm96.926.023h0V55.8a48.542,48.542,0,0,0,.307-5.211A47.691,47.691,0,0,0,98.944,45.283ZM3.74,18.258v7.225H63.555a.87.87,0,0,1,.535.188L71.3,31.449H97.229V21.74a3.483,3.483,0,0,0-3.477-3.482ZM50.482,1.716A48.464,48.464,0,0,0,25.151,8.9,4.612,4.612,0,0,1,28.3,10.946l4.522,5.6H85.4A48.318,48.318,0,0,0,50.482,1.716ZM6.634,10.552a2.9,2.9,0,0,0-2.894,2.9v3.09H30.627l-3.717-4.6a2.981,2.981,0,0,0-2.483-1.391Z" transform="translate(-0.001 0.433)" fill="#001bc0"/></g></g><path d="M1,4a.91.91,0,0,0,1-.781V.781A.909.909,0,0,0,1,0,.91.91,0,0,0,0,.781V3.219A.911.911,0,0,0,1,4" transform="translate(8 70)" fill="#001bc0"/><path d="M11.186,9.256H1.626V.872A.844.844,0,0,0,.812,0,.844.844,0,0,0,0,.872v9.256A.843.843,0,0,0,.812,11H11.186a.874.874,0,0,0,0-1.744" transform="translate(8 76)" fill="#001bc0"/><path d="M7.814,14H2.222a.937.937,0,0,1-.671-.284.84.84,0,0,1-.194-.668l.688-4.494A4.693,4.693,0,0,1,0,4.729,4.871,4.871,0,0,1,4.992,0,4.88,4.88,0,0,1,10,4.729,4.689,4.689,0,0,1,7.955,8.555l.653,4.26a.85.85,0,0,1,.088.351A.861.861,0,0,1,7.814,14ZM4.992,1.67A3.15,3.15,0,0,0,1.764,4.729,3.03,3.03,0,0,0,3.44,7.419a.832.832,0,0,1,.441.851l-.635,4.06h3.51L6.12,8.269a.832.832,0,0,1,.442-.851,3.031,3.031,0,0,0,1.676-2.69A3.16,3.16,0,0,0,4.992,1.67Z" transform="translate(48 65)" fill="#001bc0"/></g></svg>